<?xml version="1.0" encoding="utf-8"?>
<!-- Generator: Adobe Illustrator 16.0.0, SVG Export Plug-In . SVG Version: 6.00 Build 0)  -->
<!DOCTYPE svg PUBLIC "-//W3C//DTD SVG 1.1//EN" "http://www.w3.org/Graphics/SVG/1.1/DTD/svg11.dtd">
<svg version="1.1" id="Layer_1" xmlns="http://www.w3.org/2000/svg" xmlns:xlink="http://www.w3.org/1999/xlink" x="0px" y="0px"
	 width="1000px" height="600px" viewBox="0 0 1000 600" enable-background="new 0 0 1000 600" xml:space="preserve">
<polygon fill="none" stroke="#36A9E1" stroke-width="5" stroke-miterlimit="10" points="597.591,467.479 403.817,468.146 
	306.352,300.67 402.658,132.523 596.431,131.854 693.896,299.331 "/>
<g>
	<ellipse fill="#1D1D1B" cx="500.124" cy="243.952" rx="44.866" ry="45.613"/>
	<path fill="#DADADA" d="M519.462,305.346"/>
	<g>
		<path fill="#1D1D1B" d="M500.124,427.901c10.939,0,20.963-6.463,28.748-17.198h-57.498
			C479.16,421.438,489.184,427.901,500.124,427.901z"/>
		<path fill="#1D1D1B" d="M458.686,382.288h82.876c1.143-4.525,2.018-15.28,2.6-20.208h-88.074
			C456.667,367.008,457.543,377.763,458.686,382.288z"/>
		<path fill="#1D1D1B" d="M500.124,279.845c-8.753,0-16.92,4.141-23.823,11.293h47.646
			C517.042,283.985,508.876,279.845,500.124,279.845z"/>
		<path fill="#1D1D1B" d="M460.364,319.553c-1.98,6.234-3.438,12.991-4.277,20.112h88.074c-0.84-7.121-2.297-13.878-4.279-20.112
			H460.364z"/>
		<path fill="#36A9E1" d="M523.946,291.138h-47.646c-6.719,6.961-12.238,16.774-15.937,28.415h79.518
			C536.185,307.912,530.665,298.099,523.946,291.138z"/>
		<path fill="#36A9E1" d="M455.258,353.873c0,4.86,0.287,3.609,0.829,8.207h88.074c0.541-4.598,0.828-3.347,0.828-8.207
			s-0.287-9.609-0.828-14.208h-88.074C455.545,344.264,455.258,349.013,455.258,353.873z"/>
		<path fill="#36A9E1" d="M471.374,410.703h57.498c5.508-7.592,9.893-17.321,12.689-28.415h-82.876
			C461.482,393.382,465.867,403.111,471.374,410.703z"/>
	</g>
	<path fill="#DADADA" d="M500.124,279.845c0,0,104.686-18.693,115.154-22.433c10.469-3.738,3.738,22.433,3.738,22.433l-2.99,26.919
		l-7.479,29.163c0,0-56.83,18.694-63.559,5.982C538.259,329.197,500.124,279.845,500.124,279.845z"/>
	<path fill="#DADADA" d="M500.124,279.845c0,0-104.687-18.693-115.155-22.433c-10.469-3.738-3.739,22.433-3.739,22.433l2.991,26.919
		l7.478,29.163c0,0,56.83,18.694,63.56,5.982C461.988,329.197,500.124,279.845,500.124,279.845z"/>
	<linearGradient id="SVGID_1_" gradientUnits="userSpaceOnUse" x1="620.6865" y1="300.3501" x2="510.7471" y2="300.3501">
		<stop  offset="0" style="stop-color:#FFFFFF"/>
		<stop  offset="1" style="stop-color:#000000"/>
	</linearGradient>
	<path opacity="0.4" fill="url(#SVGID_1_)" d="M620.687,271.091c-0.334,2.24-7.939,48.462-7.939,48.462l-75.676,10.057
		l-26.324-35.856L620.687,271.091z"/>
	
		<linearGradient id="SVGID_2_" gradientUnits="userSpaceOnUse" x1="-138.5171" y1="298.8535" x2="-248.4575" y2="298.8535" gradientTransform="matrix(-1 0 0 1 241.3301 0)">
		<stop  offset="0" style="stop-color:#FFFFFF"/>
		<stop  offset="1" style="stop-color:#000000"/>
	</linearGradient>
	<path opacity="0.4" fill="url(#SVGID_2_)" d="M379.848,269.595c0.335,2.241,7.939,48.462,7.939,48.462l75.677,10.057l26.324-35.854
		L379.848,269.595z"/>
	<path fill="#1D1D1B" d="M548.431,184.612c2.16-4.229,0.484-9.41-3.744-11.571c-4.23-2.161-9.41-0.483-11.572,3.746
		c-1.938,3.794-0.779,8.347,2.531,10.806l-27.275,53.385l3.033,1.549l27.324-53.482
		C542.513,189.976,546.579,188.235,548.431,184.612z"/>
	<path fill="#1D1D1B" d="M449.729,184.612c-2.161-4.229-0.484-9.41,3.746-11.571c4.229-2.161,9.409-0.483,11.569,3.746
		c1.938,3.794,0.781,8.347-2.53,10.806l27.274,53.385l-3.03,1.549l-27.324-53.482C455.646,189.976,451.58,188.235,449.729,184.612z"
		/>
</g>
<g>
	<path fill="#36A9E1" d="M320.639,376.766l-105.886,2.887l-50.442,93.145l55.443,90.256l105.886-2.889l50.442-93.143
		L320.639,376.766z M322.806,555.551l-100.473,2.738l-52.609-85.641l47.863-88.381l100.473-2.74l52.609,85.641L322.806,555.551z"/>
	<path fill="#36A9E1" d="M305.295,405.098l-73.676,2.01l-35.1,64.811l38.578,62.801l73.677-2.008l35.099-64.812L305.295,405.098z
		 M305.94,528.096l-68.264,1.861l-35.744-58.187l32.521-60.049l68.263-1.861l35.744,58.187L305.94,528.096z"/>
</g>
<g>
	<path fill="#36A9E1" d="M774.037,36.027L668.15,38.914l-50.441,93.145l55.443,90.256l105.885-2.889l50.443-93.143L774.037,36.027z
		 M776.203,214.812L675.73,217.55l-52.609-85.641l47.863-88.381l100.473-2.74l52.609,85.641L776.203,214.812z"/>
	<path fill="#36A9E1" d="M758.693,64.359l-73.676,2.01l-35.1,64.811l38.578,62.801l73.676-2.008l35.1-64.812L758.693,64.359z
		 M759.338,187.357l-68.264,1.861l-35.744-58.187l32.521-60.049l68.262-1.861l35.744,58.187L759.338,187.357z"/>
</g>
<circle fill="#36A9E1" cx="723.594" cy="129.17" r="30.928"/>
<circle fill="#36A9E1" cx="270.196" cy="469.908" r="30.928"/>
</svg>
